<svg width="629" height="96" viewBox="0 0 629 96" fill="none" xmlns="http://www.w3.org/2000/svg">
<path d="M439.568 25.3145V35.2895H418.308C415.986 35.2895 413.984 35.7249 412.303 36.5957C410.621 37.4665 409.78 38.6936 409.78 40.277C409.78 41.227 409.98 42.0978 410.381 42.8895C410.781 43.602 411.222 44.1957 411.702 44.6707C412.263 45.1457 413.063 45.6603 414.104 46.2145C415.225 46.6895 416.066 47.0457 416.627 47.2832C417.267 47.4415 419.83 48.2332 424.314 49.6582C428.798 51.0832 432.121 52.2707 434.283 53.2207C436.445 54.1707 438.087 55.477 439.208 57.1395C440.409 58.7228 441.169 60.3061 441.49 61.8895C441.81 63.3936 441.97 64.8978 441.97 66.402C441.97 77.0103 434.603 82.3145 419.87 82.3145H399.09V72.3395H419.87C427.397 72.3395 431.16 70.3603 431.16 66.402C431.16 64.502 430.039 62.9186 427.797 61.652C425.635 60.3853 422.953 59.3165 419.75 58.4457C416.627 57.5749 413.464 56.5853 410.261 55.477C407.138 54.2895 404.455 52.429 402.213 49.8957C400.051 47.2832 398.97 44.077 398.97 40.277C398.97 35.4478 400.852 31.7665 404.615 29.2332C408.379 26.6207 412.943 25.3145 418.308 25.3145H439.568Z" fill="black"/>
<path d="M387.97 82.3145H367.541C358.802 82.3145 352.543 81.0082 348.764 78.3957C345.379 76.0999 343.214 73.3686 342.269 70.202C341.403 66.9561 340.97 62.7207 340.97 57.4957V25.3145H351.362V57.377C351.362 58.802 351.402 60.029 351.48 61.0582C351.559 62.0082 351.835 63.2749 352.307 64.8582C352.779 66.3624 353.448 67.629 354.314 68.6582C355.18 69.6082 356.44 70.479 358.093 71.2707C359.747 71.9832 361.754 72.3395 364.116 72.3395H377.578V25.3145H387.97V82.3145Z" fill="black"/>
<path d="M311.732 23.3394C325.224 23.8991 331.97 29.5368 331.97 40.2523C331.97 53.6068 323.28 60.284 305.899 60.284H301.018V51.0479H306.732C312.05 51.0479 315.74 50.2482 317.804 48.6489C319.867 46.9696 320.899 44.2107 320.899 40.3723C320.899 37.8933 319.986 36.0541 318.161 34.8546C316.335 33.5751 313.994 32.9354 311.137 32.9354C305.502 32.9354 301.058 34.9346 297.804 38.9329C294.629 42.9312 293.042 47.7292 293.042 53.3269C293.042 59.2445 294.748 64.0425 298.161 67.7209C301.653 71.3994 306.177 73.2386 311.732 73.2386C316.732 73.2386 320.819 71.9992 323.994 69.5202L331.137 76.5972C325.661 81.0754 319.192 83.3145 311.732 83.3145C302.684 83.3145 295.462 80.6356 290.065 75.2778C284.669 69.92 281.97 63.0029 281.97 54.5264C281.97 45.0903 284.629 37.4535 289.946 31.6159C295.264 25.7784 302.526 23.0195 311.732 23.3394Z" fill="black"/>
<path d="M244.97 82.3145V49.8957C244.97 40.7915 246.665 34.4978 250.055 31.0145C251.71 29.2728 253.72 27.9665 256.085 27.0957C258.45 26.2249 260.499 25.7103 262.234 25.552C264.047 25.3936 266.49 25.3145 269.565 25.3145H279.97V35.2895H267.436C265.86 35.2895 264.638 35.329 263.771 35.4082C262.904 35.4874 261.879 35.7645 260.697 36.2395C259.514 36.7145 258.489 37.4665 257.622 38.4957C256.124 40.3957 255.376 44.1957 255.376 49.8957V82.3145H244.97Z" fill="black"/>
<path d="M234.97 82.3145H214.106C205.181 82.3145 198.789 81.0082 194.93 78.3957C191.473 76.0999 189.262 73.3686 188.297 70.202C187.412 66.9561 186.97 62.7207 186.97 57.4957V25.3145H197.583V57.377C197.583 58.802 197.623 60.029 197.704 61.0582C197.784 62.0082 198.066 63.2749 198.548 64.8582C199.031 66.3624 199.714 67.629 200.598 68.6582C201.483 69.6082 202.769 70.479 204.458 71.2707C206.146 71.9832 208.196 72.3395 210.608 72.3395H224.357V25.3145H234.97V82.3145Z" fill="black"/>
<path d="M162.838 48.827V59.5145C159.795 57.2186 156.072 56.0707 151.669 56.0707C147.906 56.0707 144.983 56.8228 142.902 58.327C140.82 59.752 139.779 61.8103 139.779 64.502C139.779 69.727 143.702 72.3395 151.549 72.3395H167.402V49.6582C167.402 40.079 162.678 35.2895 153.23 35.2895H134.014V25.3145H153.831C161.597 25.3145 167.562 27.2145 171.725 31.0145C175.889 34.8145 177.97 40.277 177.97 47.402V82.3145H151.188C144.383 82.3145 138.978 80.8103 134.975 77.802C130.972 74.7936 128.97 70.3999 128.97 64.6207C128.97 58.8415 131.092 54.4478 135.335 51.4395C139.579 48.4311 144.903 46.927 151.308 46.927C154.911 46.927 158.755 47.5603 162.838 48.827Z" fill="black"/>
<path d="M104.348 10.4348C104.348 16.1978 99.676 20.8696 93.913 20.8696C88.1501 20.8696 83.4783 16.1978 83.4783 10.4348C83.4783 4.67181 88.1501 0 93.913 0C99.676 0 104.348 4.67181 104.348 10.4348Z" fill="url(#paint0_linear_2011_43)"/>
<path d="M84.2889 95.9052L84.3354 95.9054L84.3842 95.9053C99.7668 95.8707 109.379 79.2194 101.7 65.8768L69.5646 10.0409C61.8593 -3.34698 42.5414 -3.34698 34.8361 10.041L2.70036 65.8768C-4.95607 79.1798 4.57701 95.772 19.8798 95.9046L20.0467 95.9058L20.0348 96H42.7691C43.8701 96 44.2599 94.5418 43.3058 93.9924L27.1988 84.7179C25.8653 83.9501 25.0435 82.5285 25.0435 80.9897V54.2451C25.0435 52.7063 25.8653 51.2847 27.1988 50.5169L50.4446 37.1318C51.7734 36.3666 53.4092 36.3666 54.738 37.1318L77.9838 50.5169C79.3173 51.2847 80.1391 52.7063 80.1391 54.2451V80.9897C80.1391 82.5285 79.3173 83.9501 77.9838 84.7179L61.8768 93.9924C60.9227 94.5418 61.3125 96 62.4135 96H83.4783L83.4719 95.8736C83.6617 95.8854 83.8252 95.8928 83.9574 95.8975C84.1161 95.9032 84.2296 95.9048 84.2889 95.9052Z" fill="url(#paint1_linear_2011_43)"/>
<path d="M52.5898 77.6349C58.1222 77.6349 62.6071 73.15 62.6071 67.6175C62.6071 62.0851 58.1222 57.6001 52.5898 57.6001C47.0573 57.6001 42.5724 62.0851 42.5724 67.6175C42.5724 73.15 47.0573 77.6349 52.5898 77.6349Z" fill="url(#paint2_linear_2011_43)"/>
<path d="M452 82V25H503.567V34.5792H461.44V48.75H495.376V58.25H461.44V72.4208H503.567V82H452Z" fill="#0070F2"/>
<path d="M555.417 82L538.176 61.1H550.425L565.949 79.7833V82H555.417ZM510.013 82V25.0792H555.651C557.576 25.0792 559.318 25.5806 560.878 26.5833C562.491 27.5333 563.765 28.8264 564.701 30.4625C565.689 32.0458 566.183 33.8139 566.183 35.7667V51.4417C566.183 53.3417 565.689 55.1097 564.701 56.7458C563.765 58.3819 562.491 59.675 560.878 60.625C559.318 61.575 557.576 62.05 555.651 62.05L519.375 62.1292V82H510.013ZM520.779 52.4708H555.339C555.704 52.4708 556.016 52.3389 556.276 52.075C556.588 51.8111 556.744 51.4681 556.744 51.0458V36.0042C556.744 35.6347 556.588 35.3181 556.276 35.0542C556.016 34.7375 555.704 34.5792 555.339 34.5792H520.779C520.415 34.5792 520.077 34.7375 519.765 35.0542C519.505 35.3181 519.375 35.6347 519.375 36.0042V51.0458C519.375 51.4681 519.505 51.8111 519.765 52.075C520.077 52.3389 520.415 52.4708 520.779 52.4708Z" fill="#0070F2"/>
<path d="M572.83 82V25.0792H618.468C620.392 25.0792 622.135 25.5806 623.695 26.5833C625.307 27.5333 626.582 28.8264 627.518 30.4625C628.506 32.0458 629 33.8139 629 35.7667V51.4417C629 53.3417 628.506 55.1097 627.518 56.7458C626.582 58.3819 625.307 59.675 623.695 60.625C622.135 61.575 620.392 62.05 618.468 62.05L582.192 62.1292V82H572.83ZM583.596 52.4708H618.156C618.52 52.4708 618.832 52.3389 619.092 52.075C619.404 51.8111 619.56 51.4681 619.56 51.0458V36.0042C619.56 35.6347 619.404 35.3181 619.092 35.0542C618.832 34.7375 618.52 34.5792 618.156 34.5792H583.596C583.232 34.5792 582.894 34.7375 582.582 35.0542C582.322 35.3181 582.192 35.6347 582.192 36.0042V51.0458C582.192 51.4681 582.322 51.8111 582.582 52.075C582.894 52.3389 583.232 52.4708 583.596 52.4708Z" fill="#0070F2"/>
<defs>
<linearGradient id="paint0_linear_2011_43" x1="133.699" y1="92" x2="24.6992" y2="43" gradientUnits="userSpaceOnUse">
<stop stop-color="#CF8EA3"/>
<stop offset="0.295" stop-color="#A365C8"/>
<stop offset="0.396805" stop-color="#8660D5"/>
<stop offset="0.715532" stop-color="#4956F0"/>
<stop offset="1" stop-color="#3CADE8"/>
</linearGradient>
<linearGradient id="paint1_linear_2011_43" x1="133.699" y1="92" x2="24.6992" y2="43" gradientUnits="userSpaceOnUse">
<stop stop-color="#CF8EA3"/>
<stop offset="0.295" stop-color="#A365C8"/>
<stop offset="0.396805" stop-color="#8660D5"/>
<stop offset="0.715532" stop-color="#4956F0"/>
<stop offset="1" stop-color="#3CADE8"/>
</linearGradient>
<linearGradient id="paint2_linear_2011_43" x1="133.699" y1="92" x2="24.6992" y2="43" gradientUnits="userSpaceOnUse">
<stop stop-color="#CF8EA3"/>
<stop offset="0.295" stop-color="#A365C8"/>
<stop offset="0.396805" stop-color="#8660D5"/>
<stop offset="0.715532" stop-color="#4956F0"/>
<stop offset="1" stop-color="#3CADE8"/>
</linearGradient>
</defs>
</svg>
